<svg xmlns="http://www.w3.org/2000/svg" width="256" height="60"><g data-name="Vector Smart Object2"><g data-name="Group 1527"><path data-name="Path 17099" d="M36.301 49.981a21.619 21.619 0 1143.238 0z" fill="#eaf0f4"/><path data-name="Path 17100" d="M69.473 49.981a48.544 48.544 0 1197.086 0z" fill="#eaf0f4"/><path data-name="Path 17101" d="M135.347 49.983a33.242 33.242 0 0163.873-13.175 17.307 17.307 0 0111.541-4.392 17.508 17.508 0 0117.451 17.567z" fill="#eaf0f4"/><path data-name="Rectangle 2815" fill="#d0d9e2" d="M0 48.877h235.36v2.208H0z"/><path data-name="Path 17102" d="M65.951 49.981h-2.193a20.523 20.523 0 10-41.045 0H20.52a22.716 22.716 0 1145.431 0z" fill="#d0d9e2"/><path data-name="Path 17103" d="M152.971 49.981h-2.193a47.448 47.448 0 10-94.893 0h-2.193a49.641 49.641 0 1199.279 0z" fill="#d0d9e2"/><path data-name="Path 17104" d="M214.62 49.983h-2.193a16.329 16.329 0 00-27.166-12.348l-1.137 1.011-.6-1.4a32.146 32.146 0 00-61.767 12.741h-2.193a34.335 34.335 0 0165.383-14.943 18.442 18.442 0 0111.13-3.735 18.629 18.629 0 0118.543 18.674z" fill="#d0d9e2"/><path data-name="Rectangle 2816" fill="#d0d9e2" d="M80.464 57.792h175.535V60H80.464z"/></g></g></svg>