<svg xmlns="http://www.w3.org/2000/svg" width="155" height="50"><g data-name="Vector Smart Object4"><g data-name="Group 1529"><path data-name="Path 17111" d="M53.551 38.575a20.548 20.548 0 0120.4-20.693 20.059 20.059 0 018.888 2.064 32.225 32.225 0 0157.784 9.366 33.264 33.264 0 011.305 9.263z" fill="#eaf0f4"/><path data-name="Path 17112" d="M125.23 41.018H28.454v-1.266a25.347 25.347 0 0125.136-25.5 24.572 24.572 0 019.986 2.093A39.037 39.037 0 0195.253 0a39.452 39.452 0 0137.083 26.881 14.641 14.641 0 017.78-2.231A15.01 15.01 0 01155 39.75v1.269zm9.185-2.537h18.02a12.47 12.47 0 00-12.32-11.293 12.193 12.193 0 00-7.021 2.219 40.268 40.268 0 011.321 9.074zm-6.621 0h4.118a37.728 37.728 0 00-.933-7.2 12.607 12.607 0 00-3.185 7.2zm-96.8 0h94.293a15.152 15.152 0 014.938-10A36.94 36.94 0 0095.257 2.54a36.565 36.565 0 00-30.234 16.112l-.61.9-.967-.476a22.117 22.117 0 00-9.86-2.289A22.806 22.806 0 0030.99 38.48z" fill="#d0d9e2"/><path data-name="Rectangle 2819" fill="#d0d9e2" d="M0 47.463h115.084V50H0z"/></g></g></svg>