<svg xmlns="http://www.w3.org/2000/svg" width="317" height="70"><g data-name="Vector Smart Object3"><path data-name="Path 17105" d="M43.667 56.776a18.824 18.824 0 1137.647 0z" fill="#eaf0f4"/><path data-name="Path 17106" d="M221.432 56.776a19.741 19.741 0 1139.48 0z" fill="#eaf0f4"/><path data-name="Path 17107" d="M81.314 56.776a34.689 34.689 0 0134.583-34.794 34.233 34.233 0 0115.067 3.47 54.8 54.8 0 0197.963 15.75 55.528 55.528 0 012.211 15.575z" fill="#eaf0f4"/><g data-name="Group 1528" fill="#d0d9e2"><path data-name="Rectangle 2817" d="M0 55.263h266.291v3.027H0z"/><path data-name="Path 17108" d="M63.497 56.776h-3.009a17.32 17.32 0 10-34.639 0h-3.012a20.328 20.328 0 1140.656 0z"/><path data-name="Path 17109" d="M243.09 56.776h-3.009a18.236 18.236 0 10-36.471 0h-3.013a21.244 21.244 0 1142.488 0z"/><path data-name="Path 17110" d="M213.315 56.776h-3.009a53.64 53.64 0 00-53.414-53.747 53.373 53.373 0 00-44.017 23.283l-.733 1.07-1.163-.568a32.549 32.549 0 00-14.41-3.318 33.217 33.217 0 00-33.072 33.28h-3.009a36.238 36.238 0 0136.085-36.308 35.513 35.513 0 0114.562 3.079 56.3 56.3 0 0199.911 17.228 57.087 57.087 0 012.269 16.001z"/></g><path data-name="Rectangle 2818" fill="#d0d9e2" d="M111.636 66.973h205.363V70H111.636z"/></g></svg>