<svg xmlns="http://www.w3.org/2000/svg" xmlns:xlink="http://www.w3.org/1999/xlink" viewBox="0 0 552.47 123.06"><defs><style>.cls-1{fill:#100f2d;}.cls-2{fill:url(#Sfumatura_senza_nome_40);}</style><linearGradient id="Sfumatura_senza_nome_40" x1="73.28" y1="13.07" x2="-21.73" y2="91.8" gradientUnits="userSpaceOnUse"><stop offset="0" stop-color="#31e4fa"/><stop offset="0.5" stop-color="#4877ff"/><stop offset="1" stop-color="#d775ff"/></linearGradient></defs><g id="Layer_2" data-name="Layer 2"><g id="Layer_1-2" data-name="Layer 1"><path class="cls-1" d="M155.37,56.06h45.92a43.1,43.1,0,0,1-1.8,18.64,35.81,35.81,0,0,1-8.59,14.22,41.39,41.39,0,0,1-13.23,8.8,40.56,40.56,0,0,1-15.85,3.17q-17.17,0-28.81-11.37a37.56,37.56,0,0,1-11.65-28,37.56,37.56,0,0,1,11.65-28q11.64-11.37,28.81-11.38a38.77,38.77,0,0,1,22.3,6.46A38.23,38.23,0,0,1,197.9,44.36l-17.28,6.56a21,21,0,0,0-7.49-8.42,21,21,0,0,0-26.4,3.17,22.2,22.2,0,0,0-6.13,15.86,22.16,22.16,0,0,0,6.13,15.85,20,20,0,0,0,15.09,6.45,20.78,20.78,0,0,0,11.92-3.33,16.83,16.83,0,0,0,6.67-8h-25Z"/><path class="cls-1" d="M215.45,92.42a28,28,0,0,1-8.8-21,28,28,0,0,1,8.8-21.05q8.81-8.48,21.81-8.47t21.82,8.47a28.07,28.07,0,0,1,8.8,21.05,28.07,28.07,0,0,1-8.8,21q-8.8,8.47-21.82,8.47T215.45,92.42Zm12.9-30.73a13.8,13.8,0,0,0-3.55,9.68,13.8,13.8,0,0,0,3.55,9.68,12.18,12.18,0,0,0,17.83,0,13.84,13.84,0,0,0,3.55-9.68,13.84,13.84,0,0,0-3.55-9.68,12.18,12.18,0,0,0-17.83,0Z"/><path class="cls-1" d="M275.29,42.94V27.63l17.5-5.47V42.94h13.66V58.25H292.79V77.93q0,6.55,6.56,6.56h7.1V99.8h-7.1q-24.06,0-24.06-23V58.25"/><path class="cls-1" d="M324.66,89.52a37.56,37.56,0,0,1-11.65-28,37.56,37.56,0,0,1,11.65-28q11.64-11.37,28.81-11.38a38.82,38.82,0,0,1,22.31,6.46,38.28,38.28,0,0,1,13.77,15.74l-17.27,6.56a21.18,21.18,0,0,0-7.49-8.42,21,21,0,0,0-26.41,3.17,22.19,22.19,0,0,0-6.12,15.86,22.15,22.15,0,0,0,6.12,15.85,21,21,0,0,0,26.41,3.17,21,21,0,0,0,7.49-8.42l17.27,6.56a38.24,38.24,0,0,1-13.77,15.75,38.82,38.82,0,0,1-22.31,6.45Q336.31,100.89,324.66,89.52Z"/><path class="cls-1" d="M416.89,99.8H398.3V23.26h18.59V53.33H447.5V23.26h18.59V99.8H447.5V69.73H416.89Z"/><path class="cls-1" d="M552.47,99.8H532.68l-5.79-15.09H496.05L490.26,99.8h-18.7l30.07-76.54H522.4Zm-41-55.66-9.19,24.17h18.37Z"/><path class="cls-2" d="M21.42,86.23l19,11.37a4.36,4.36,0,0,0,4.55,0L97,64.82a4.36,4.36,0,0,0,0-7.37L6.67.67A4.36,4.36,0,0,0,0,4.36V26.64a4.36,4.36,0,0,0,2.05,3.69l59.7,37.18a4.35,4.35,0,0,1,.08,7.34h0a4.33,4.33,0,0,1-4.62.08L6.6,44.43A4.36,4.36,0,0,0,0,48.16V118.7a4.35,4.35,0,0,0,6.69,3.67l21.55-13.71a4.35,4.35,0,0,0-.15-7.43L12.77,92.3a6.29,6.29,0,0,1-3.13-5.44h0a4.35,4.35,0,0,1,6.58-3.74Z"/></g></g></svg>