<?xml version="1.0" encoding="UTF-8"?>
<!DOCTYPE svg PUBLIC "-//W3C//DTD SVG 1.1//EN" "http://www.w3.org/Graphics/SVG/1.1/DTD/svg11.dtd">
<svg xmlns="http://www.w3.org/2000/svg" version="1.1" width="287px" height="287px" style="shape-rendering:geometricPrecision; text-rendering:geometricPrecision; image-rendering:optimizeQuality; fill-rule:evenodd; clip-rule:evenodd" xmlns:xlink="http://www.w3.org/1999/xlink">
<g><path style="opacity:0.992" fill="#4292fe" d="M 33.5,-0.5 C 35.1667,-0.5 36.8333,-0.5 38.5,-0.5C 80.3253,49.8025 122.159,100.136 164,150.5C 164.692,151.437 164.525,152.103 163.5,152.5C 156.456,148.651 149.789,144.318 143.5,139.5C 106.204,93.5366 68.5375,47.8699 30.5,2.5C 31.3065,1.27187 32.3065,0.271873 33.5,-0.5 Z"/></g>
<g><path style="opacity:0.992" fill="#4198fd" d="M 38.5,-0.5 C 39.8333,-0.5 41.1667,-0.5 42.5,-0.5C 49.5,4.16667 56.5,8.83333 63.5,13.5C 63.0618,13.4346 62.7284,13.6012 62.5,14C 108.333,69.1667 154.167,124.333 200,179.5C 200.791,180.745 201.291,182.078 201.5,183.5C 196.709,187.068 191.709,190.402 186.5,193.5C 186.657,192.127 186.49,190.793 186,189.5C 181.301,183.971 176.468,178.638 171.5,173.5C 177.075,167.743 176.742,162.243 170.5,157C 168.102,155.476 165.769,153.976 163.5,152.5C 164.525,152.103 164.692,151.437 164,150.5C 122.159,100.136 80.3253,49.8025 38.5,-0.5 Z"/></g>
<g><path style="opacity:0.995" fill="#438cfe" d="M 30.5,2.5 C 68.5375,47.8699 106.204,93.5366 143.5,139.5C 135.325,135.583 127.659,130.917 120.5,125.5C 121.525,125.103 121.692,124.437 121,123.5C 89.5923,86.2687 58.4257,48.9353 27.5,11.5C 27.3367,9.14316 27.5034,6.80982 28,4.5C 28.7083,3.61947 29.5416,2.9528 30.5,2.5 Z"/></g>
<g><path style="opacity:0.994" fill="#3f9ffd" d="M 63.5,13.5 C 70.6676,17.5827 77.6676,21.9161 84.5,26.5C 125.418,77.7542 167.084,128.421 209.5,178.5C 207.371,180.95 204.704,182.617 201.5,183.5C 201.291,182.078 200.791,180.745 200,179.5C 154.167,124.333 108.333,69.1667 62.5,14C 62.7284,13.6012 63.0618,13.4346 63.5,13.5 Z"/></g>
<g><path style="opacity:0.994" fill="#4486fe" d="M 27.5,11.5 C 58.4257,48.9353 89.5923,86.2687 121,123.5C 121.692,124.437 121.525,125.103 120.5,125.5C 113.589,121.925 106.922,117.925 100.5,113.5C 100.649,112.448 100.483,111.448 100,110.5C 75.9688,81.6425 51.8021,52.9758 27.5,24.5C 27.5,20.1667 27.5,15.8333 27.5,11.5 Z"/></g>
<g><path style="opacity:0.99" fill="#4680fe" d="M 27.5,24.5 C 51.8021,52.9758 75.9688,81.6425 100,110.5C 100.483,111.448 100.649,112.448 100.5,113.5C 92.5,108.5 84.5,103.5 76.5,98.5C 60.9166,77.9137 44.5833,57.9137 27.5,38.5C 27.5,33.8333 27.5,29.1667 27.5,24.5 Z"/></g>
<g><path style="opacity:0.994" fill="#3ea5fd" d="M 84.5,26.5 C 92.5,31.5 100.5,36.5 108.5,41.5C 107.697,42.4232 107.53,43.4232 108,44.5C 144.031,88.0236 180.198,131.357 216.5,174.5C 214.664,176.588 212.331,177.921 209.5,178.5C 167.084,128.421 125.418,77.7542 84.5,26.5 Z"/></g>
<g><path style="opacity:0.981" fill="#4978ff" d="M 27.5,38.5 C 44.5833,57.9137 60.9166,77.9137 76.5,98.5C 60.6104,88.6358 44.7771,78.6358 29,68.5C 27.5505,58.6051 27.0505,48.6051 27.5,38.5 Z"/></g>
<g><path style="opacity:0.992" fill="#3cabfc" d="M 108.5,41.5 C 114.795,45.141 120.795,49.141 126.5,53.5C 158.5,92.5 190.5,131.5 222.5,170.5C 220.882,172.316 218.882,173.649 216.5,174.5C 180.198,131.357 144.031,88.0236 108,44.5C 107.53,43.4232 107.697,42.4232 108.5,41.5 Z"/></g>
<g><path style="opacity:0.99" fill="#3bb1fc" d="M 126.5,53.5 C 135.509,58.3349 144.176,63.6683 152.5,69.5C 152.062,69.4346 151.728,69.6012 151.5,70C 178.045,101.707 204.378,133.54 230.5,165.5C 228.178,167.664 225.511,169.331 222.5,170.5C 190.5,131.5 158.5,92.5 126.5,53.5 Z"/></g>
<g><path style="opacity:0.986" fill="#3ab8fc" d="M 152.5,69.5 C 159.704,73.5969 166.704,77.9302 173.5,82.5C 173.062,82.4346 172.728,82.6012 172.5,83C 194.533,108.921 216.199,135.088 237.5,161.5C 235.302,163.098 232.969,164.431 230.5,165.5C 204.378,133.54 178.045,101.707 151.5,70C 151.728,69.6012 152.062,69.4346 152.5,69.5 Z"/></g>
<g><path style="opacity:0.989" fill="#39befc" d="M 173.5,82.5 C 179.5,86.1667 185.5,89.8333 191.5,93.5C 191.709,94.9217 192.209,96.255 193,97.5C 208.02,113.19 222.354,129.523 236,146.5C 236.333,147.833 236.667,149.167 237,150.5C 239.594,152.704 241.428,155.37 242.5,158.5C 240.999,159.752 239.332,160.752 237.5,161.5C 216.199,135.088 194.533,108.921 172.5,83C 172.728,82.6012 173.062,82.4346 173.5,82.5 Z"/></g>
<g><path style="opacity:0.986" fill="#37c4fb" d="M 191.5,93.5 C 199.5,98.5 207.5,103.5 215.5,108.5C 227.129,123.463 239.129,138.129 251.5,152.5C 248.709,154.735 245.709,156.735 242.5,158.5C 241.428,155.37 239.594,152.704 237,150.5C 236.667,149.167 236.333,147.833 236,146.5C 222.354,129.523 208.02,113.19 193,97.5C 192.209,96.255 191.709,94.9217 191.5,93.5 Z"/></g>
<g><path style="opacity:0.995" fill="#6776ff" d="M 33.5,102.5 C 36.3552,103.834 38.8552,105.834 41,108.5C 73.0454,147.04 104.879,185.707 136.5,224.5C 134.421,226.873 131.754,228.206 128.5,228.5C 95.8803,187.605 62.547,147.272 28.5,107.5C 29.1667,104.833 30.8333,103.167 33.5,102.5 Z"/></g>
<g><path style="opacity:0.992" fill="#5c77ff" d="M 33.5,102.5 C 35.9664,101.366 38.633,101.199 41.5,102C 48.3573,105.592 55.024,109.426 61.5,113.5C 89.2144,148.913 117.881,183.58 147.5,217.5C 144.35,220.579 140.683,222.913 136.5,224.5C 104.879,185.707 73.0454,147.04 41,108.5C 38.8552,105.834 36.3552,103.834 33.5,102.5 Z"/></g>
<g><path style="opacity:0.963" fill="#36cbfb" d="M 215.5,108.5 C 229.451,117.277 243.284,126.277 257,135.5C 260.355,143.016 258.522,148.683 251.5,152.5C 239.129,138.129 227.129,123.463 215.5,108.5 Z"/></g>
<g><path style="opacity:0.994" fill="#7175ff" d="M 28.5,107.5 C 62.547,147.272 95.8803,187.605 128.5,228.5C 126.658,229.075 124.658,228.909 122.5,228C 116.434,224.976 110.768,221.476 105.5,217.5C 79.8473,185.85 53.8473,154.517 27.5,123.5C 27.1786,117.974 27.5119,112.64 28.5,107.5 Z"/></g>
<g><path style="opacity:0.988" fill="#4e77ff" d="M 61.5,113.5 C 81.8707,125.346 101.871,137.679 121.5,150.5C 136.152,169.149 151.152,187.482 166.5,205.5C 160.681,210.247 154.348,214.247 147.5,217.5C 117.881,183.58 89.2144,148.913 61.5,113.5 Z"/></g>
<g><path style="opacity:0.987" fill="#7d76ff" d="M 27.5,123.5 C 53.8473,154.517 79.8473,185.85 105.5,217.5C 93.8296,211.334 82.4963,204.668 71.5,197.5C 71.9382,197.565 72.2716,197.399 72.5,197C 57.2595,179.269 42.2595,161.435 27.5,143.5C 27.5,136.833 27.5,130.167 27.5,123.5 Z"/></g>
<g><path style="opacity:0.987" fill="#8875ff" d="M 27.5,143.5 C 42.2595,161.435 57.2595,179.269 72.5,197C 72.2716,197.399 71.9382,197.565 71.5,197.5C 68.6987,196.265 66.0321,194.765 63.5,193C 60.7795,192.398 58.1128,192.565 55.5,193.5C 53.2843,192.797 51.451,191.464 50,189.5C 42.958,180.06 35.458,171.06 27.5,162.5C 27.5,156.167 27.5,149.833 27.5,143.5 Z"/></g>
<g><path style="opacity:0.978" fill="#467ffe" d="M 121.5,150.5 C 129.302,154.568 136.968,158.902 144.5,163.5C 153.789,175.879 163.455,188.046 173.5,200C 172.748,200.671 172.414,201.504 172.5,202.5C 170.784,204.025 168.784,205.025 166.5,205.5C 151.152,187.482 136.152,169.149 121.5,150.5 Z"/></g>
<g><path style="opacity:0.982" fill="#9675ff" d="M 27.5,162.5 C 35.458,171.06 42.958,180.06 50,189.5C 51.451,191.464 53.2843,192.797 55.5,193.5C 49.4448,198.882 48.9448,204.882 54,211.5C 66.9188,219.711 80.0855,227.544 93.5,235C 101.199,244.244 99.532,251.411 88.5,256.5C 68.5431,231.874 48.2098,207.541 27.5,183.5C 27.5,176.5 27.5,169.5 27.5,162.5 Z"/></g>
<g><path style="opacity:0.981" fill="#448afe" d="M 144.5,163.5 C 151.445,167.889 158.612,171.889 166,175.5C 167.9,174.923 169.733,174.256 171.5,173.5C 176.468,178.638 181.301,183.971 186,189.5C 186.49,190.793 186.657,192.127 186.5,193.5C 181.87,196.486 177.203,199.486 172.5,202.5C 172.414,201.504 172.748,200.671 173.5,200C 163.455,188.046 153.789,175.879 144.5,163.5 Z"/></g>
<g><path style="opacity:0.995" fill="#a375ff" d="M 27.5,183.5 C 48.2098,207.541 68.5431,231.874 88.5,256.5C 85.4338,258.89 82.1004,260.89 78.5,262.5C 61.5,242.5 44.5,222.5 27.5,202.5C 27.5,196.167 27.5,189.833 27.5,183.5 Z"/></g>
<g><path style="opacity:0.993" fill="#af75ff" d="M 27.5,202.5 C 44.5,222.5 61.5,242.5 78.5,262.5C 75.106,265.221 71.4394,267.554 67.5,269.5C 54.1667,253.833 40.8333,238.167 27.5,222.5C 27.5,215.833 27.5,209.167 27.5,202.5 Z"/></g>
<g><path style="opacity:0.993" fill="#ba74ff" d="M 27.5,222.5 C 40.8333,238.167 54.1667,253.833 67.5,269.5C 64.106,272.221 60.4394,274.554 56.5,276.5C 47.1807,264.517 37.514,252.85 27.5,241.5C 27.5,235.167 27.5,228.833 27.5,222.5 Z"/></g>
<g><path style="opacity:0.989" fill="#cb74ff" d="M 27.5,241.5 C 37.514,252.85 47.1807,264.517 56.5,276.5C 51.8333,279.833 47.1667,283.167 42.5,286.5C 39.5,286.5 36.5,286.5 33.5,286.5C 31.563,285.069 29.7297,283.402 28,281.5C 27.5001,268.171 27.3334,254.837 27.5,241.5 Z"/></g>
</svg>
